<?xml version="1.0" encoding="UTF-8" standalone="no"?>
<!-- Generator: Adobe Illustrator 14.0.0, SVG Export Plug-In . SVG Version: 6.00 Build 43363)  -->

<svg
   xmlns:dc="http://purl.org/dc/elements/1.1/"
   xmlns:cc="http://creativecommons.org/ns#"
   xmlns:rdf="http://www.w3.org/1999/02/22-rdf-syntax-ns#"
   xmlns:svg="http://www.w3.org/2000/svg"
   xmlns="http://www.w3.org/2000/svg"
   xmlns:sodipodi="http://sodipodi.sourceforge.net/DTD/sodipodi-0.dtd"
   xmlns:inkscape="http://www.inkscape.org/namespaces/inkscape"
   version="1.1"
   id="svg2"
   x="0px"
   y="0px"
   width="2576.4382"
   height="1284.317"
   viewBox="0 0 2576.4381 1284.3171"
   enable-background="new 0 0 1400 1900"
   xml:space="preserve"
   inkscape:version="0.48.5 r10040"
   sodipodi:docname="exampleBoard.svg"><metadata
     id="metadata299"><rdf:RDF><cc:Work
         rdf:about=""><dc:format>image/svg+xml</dc:format><dc:type
           rdf:resource="http://purl.org/dc/dcmitype/StillImage" /><dc:title></dc:title></cc:Work></rdf:RDF></metadata><defs
     id="defs297"><marker
       inkscape:stockid="Arrow2Lend"
       orient="auto"
       refY="0"
       refX="0"
       id="Arrow2Lend"
       style="overflow:visible"><path
         id="path9145"
         style="font-size:12px;fill-rule:evenodd;stroke-width:0.625;stroke-linejoin:round"
         d="M 8.7185878,4.0337352 -2.2072895,0.01601326 8.7185884,-4.0017078 c -1.7454984,2.3720609 -1.7354408,5.6174519 -6e-7,8.035443 z"
         transform="matrix(-1.1,0,0,-1.1,-1.1,0)"
         inkscape:connector-curvature="0" /></marker></defs><sodipodi:namedview
     pagecolor="#ffffff"
     bordercolor="#666666"
     borderopacity="1"
     objecttolerance="10"
     gridtolerance="10"
     guidetolerance="10"
     inkscape:pageopacity="0"
     inkscape:pageshadow="2"
     inkscape:window-width="1280"
     inkscape:window-height="676"
     id="namedview295"
     showgrid="false"
     fit-margin-top="0"
     fit-margin-left="0"
     fit-margin-right="0"
     fit-margin-bottom="0"
     inkscape:zoom="0.35355339"
     inkscape:cx="1272.5446"
     inkscape:cy="679.3022"
     inkscape:window-x="0"
     inkscape:window-y="0"
     inkscape:window-maximized="0"
     inkscape:current-layer="svg2" /><text
     xml:space="preserve"
     style="font-size:40px;font-style:normal;font-weight:normal;line-height:125%;letter-spacing:0px;word-spacing:0px;fill:#000000;fill-opacity:1;stroke:none;font-family:Sans"
     x="458.09344"
     y="1248.3171"
     id="text3294"
     sodipodi:linespacing="125%"><tspan
       sodipodi:role="line"
       id="tspan3296"
       x="458.09344"
       y="1248.3171" /></text>
<g
     id="g3733"
     transform="translate(-151.90618,-481.68296)"><g
       id="g3630"><text
         sodipodi:linespacing="125%"
         id="text3511"
         y="1764.9805"
         x="1590.705"
         style="font-size:40px;font-style:normal;font-weight:normal;line-height:125%;letter-spacing:0px;word-spacing:0px;fill:#000000;fill-opacity:1;stroke:none;font-family:Sans"
         xml:space="preserve"><tspan
           style="font-size:72px"
           y="1764.9805"
           x="1590.705"
           id="tspan3513"
           sodipodi:role="line">0 </tspan></text>
<text
         sodipodi:linespacing="125%"
         id="text3515"
         y="1766"
         x="1740.8601"
         style="font-size:72px;font-style:normal;font-weight:normal;line-height:125%;letter-spacing:0px;word-spacing:0px;fill:#000000;fill-opacity:1;stroke:none;font-family:Sans"
         xml:space="preserve"><tspan
           y="1766"
           x="1740.8601"
           id="tspan3517"
           sodipodi:role="line">1</tspan></text>
<text
         sodipodi:linespacing="125%"
         id="text3519"
         y="1766"
         x="1890.8571"
         style="font-size:72px;font-style:normal;font-weight:normal;line-height:125%;letter-spacing:0px;word-spacing:0px;fill:#000000;fill-opacity:1;stroke:none;font-family:Sans"
         xml:space="preserve"><tspan
           y="1766"
           x="1890.8571"
           id="tspan3521"
           sodipodi:role="line">2</tspan></text>
<text
         sodipodi:linespacing="125%"
         id="text3523"
         y="1764.9805"
         x="2038.4281"
         style="font-size:72px;font-style:normal;font-weight:normal;line-height:125%;letter-spacing:0px;word-spacing:0px;fill:#000000;fill-opacity:1;stroke:none;font-family:Sans"
         xml:space="preserve"><tspan
           y="1764.9805"
           x="2038.4281"
           id="tspan3525"
           sodipodi:role="line">3</tspan></text>
<text
         sodipodi:linespacing="125%"
         id="text3527"
         y="1766"
         x="2186.9485"
         style="font-size:72px;font-style:normal;font-weight:normal;line-height:125%;letter-spacing:0px;word-spacing:0px;fill:#000000;fill-opacity:1;stroke:none;font-family:Sans"
         xml:space="preserve"><tspan
           y="1766"
           x="2186.9485"
           id="tspan3529"
           sodipodi:role="line">4</tspan></text>
<text
         sodipodi:linespacing="125%"
         id="text3531"
         y="1764.9805"
         x="2335.4512"
         style="font-size:72px;font-style:normal;font-weight:normal;line-height:125%;letter-spacing:0px;word-spacing:0px;fill:#000000;fill-opacity:1;stroke:none;font-family:Sans"
         xml:space="preserve"><tspan
           y="1764.9805"
           x="2335.4512"
           id="tspan3533"
           sodipodi:role="line">5</tspan></text>
<text
         sodipodi:linespacing="125%"
         id="text3535"
         y="1766"
         x="2631.9998"
         style="font-size:72px;font-style:normal;font-weight:normal;line-height:125%;letter-spacing:0px;word-spacing:0px;fill:#000000;fill-opacity:1;stroke:none;font-family:Sans"
         xml:space="preserve"><tspan
           y="1766"
           x="2631.9998"
           id="tspan3537"
           sodipodi:role="line">7</tspan></text>
<text
         sodipodi:linespacing="125%"
         id="text3539"
         y="1764.9805"
         x="2483.2334"
         style="font-size:72px;font-style:normal;font-weight:normal;line-height:125%;letter-spacing:0px;word-spacing:0px;fill:#000000;fill-opacity:1;stroke:none;font-family:Sans"
         xml:space="preserve"><tspan
           y="1764.9805"
           x="2483.2334"
           id="tspan3541"
           sodipodi:role="line">6</tspan></text>
<path
         inkscape:connector-curvature="0"
         d="m 1536.3661,1679.496 c -3.4,-3.4 -3.4,-1191.86304 0,-1195.26304 3.4,-3.4 1186.028,-3.4 1189.429,0 3.399,3.4 3.399,1191.86304 0,1195.26304 -3.401,3.399 -1186.029,3.399 -1189.429,0 z m 294.757,-75.052 c 0.336,-43.764 -0.188,-67.998 -1.526,-70.498 -1.966,-3.673 -4.51,-3.81 -70.621,-3.81 -50.749,0 -69.189,0.606 -70.917,2.333 -1.725,1.726 -2.333,19.895 -2.333,69.688 0,37.045 0.594,67.948 1.32,68.675 0.726,0.726 33.326,1.09 72.443,0.81 l 71.123,-0.51 0.511,-66.688 z m 297.04,-3.323 v -70.013 h -72.93 -72.929 l -0.511,70.522 -0.511,70.521 73.44,-0.51 73.439,-0.51 v -70.01 z m 300.009,3.323 c 0.335,-43.764 -0.189,-67.998 -1.527,-70.498 -1.967,-3.676 -4.522,-3.81 -72.566,-3.81 -52.261,0 -71.131,0.604 -72.86,2.333 -1.726,1.726 -2.334,19.895 -2.334,69.688 0,37.045 0.594,67.948 1.319,68.674 0.725,0.726 34.2,1.091 74.388,0.811 l 73.068,-0.51 0.512,-66.688 z m 291.716,-1.149 c 0.368,-48.806 -0.114,-68.591 -1.717,-70.523 -1.834,-2.209 -14.345,-2.595 -70.524,-2.175 l -68.295,0.511 -0.511,70.523 -0.51,70.522 70.522,-0.511 70.522,-0.511 0.513,-67.836 z m -1039.184,-76.284 c 2.729,-1.048 3.077,-9.384 3.077,-73.902 v -72.722 h -69.804 c -61.858,0 -69.938,0.351 -70.984,3.077 -0.649,1.691 -1.181,33.897 -1.181,71.567 0,50.679 0.607,69.099 2.333,70.826 1.723,1.723 19.499,2.333 67.909,2.333 36.065,0 66.958,-0.53 68.65,-1.179 z m 297.367,-1.251 c 3.037,-2.227 3.272,-8.408 2.803,-73.416 l -0.515,-70.984 -71.827,-0.51 c -56.17,-0.399 -72.166,0.024 -73.386,1.944 -0.856,1.351 -1.571,33.242 -1.588,70.87 -0.026,59.628 0.362,68.807 3.026,71.471 2.661,2.661 11.79,3.056 70.612,3.056 50.981,0 68.372,-0.597 70.875,-2.431 z m 295.791,1.251 c 2.729,-1.048 3.077,-9.386 3.077,-73.926 v -72.745 l -72.443,0.51 -72.443,0.51 -0.511,71.827 c -0.399,56.17 0.025,72.167 1.945,73.386 2.834,1.799 135.748,2.214 140.375,0.438 z m 299.313,-1.251 c 3.037,-2.227 3.272,-8.408 2.802,-73.416 l -0.514,-70.984 -72.8,-0.51 c -56.948,-0.399 -73.139,0.024 -74.357,1.944 -0.857,1.351 -1.572,33.242 -1.589,70.87 -0.025,59.628 0.363,68.807 3.026,71.471 2.663,2.662 11.879,3.056 71.585,3.056 51.759,0 69.341,-0.595 71.847,-2.431 z m -742.772,-150.393 c 0.649,-1.692 1.181,-33.572 1.181,-70.846 0,-59.016 -0.395,-68.164 -3.056,-70.825 -2.659,-2.658 -11.66,-3.057 -69.168,-3.057 -41.854,0 -67.492,0.739 -69.873,2.014 -3.613,1.934 -3.762,4.804 -3.762,72.605 0,38.825 0.583,71.175 1.296,71.888 0.713,0.714 33,1.297 71.749,1.297 62.449,0 70.587,-0.35 71.633,-3.076 z m 298.271,-69.724 c 0.399,-56.17 -0.024,-72.166 -1.944,-73.385 -2.834,-1.799 -137.693,-2.214 -142.321,-0.438 -2.729,1.048 -3.076,9.386 -3.076,73.925 v 72.745 l 73.416,-0.51 73.415,-0.51 0.51,-71.827 z m 298.777,69.724 c 0.649,-1.692 1.181,-33.572 1.181,-70.846 0,-59.016 -0.395,-68.164 -3.056,-70.825 -2.662,-2.662 -11.836,-3.057 -71.112,-3.057 -43.194,0 -69.431,0.736 -71.818,2.014 -3.613,1.934 -3.762,4.804 -3.762,72.605 0,38.825 0.584,71.175 1.297,71.888 0.713,0.714 33.875,1.297 73.693,1.297 64.222,0 72.53,-0.348 73.577,-3.076 z m 291.718,0 c 0.649,-1.692 1.181,-33.897 1.181,-71.567 0,-50.679 -0.607,-69.1 -2.334,-70.826 -1.723,-1.723 -19.499,-2.334 -67.908,-2.334 -36.066,0 -66.959,0.531 -68.651,1.181 -2.729,1.048 -3.076,9.384 -3.076,73.901 v 72.722 h 69.805 c 61.856,-10e-4 69.937,-0.351 70.983,-3.077 z m -1036.361,-220.574 v -72.93 l -67.837,-0.512 c -48.447,-0.365 -68.598,0.119 -70.498,1.696 -3.667,3.044 -3.956,139.685 -0.303,143.337 1.778,1.778 19.125,2.232 70.499,1.848 l 68.14,-0.511 v -72.928 z m 296.366,71.242 c 1.579,-1.902 2.062,-22.811 1.696,-73.415 l -0.511,-70.756 -70.984,-0.514 c -65.007,-0.471 -71.188,-0.234 -73.415,2.803 -3.138,4.279 -3.525,134.975 -0.418,140.78 1.933,3.611 4.793,3.762 71.719,3.762 56.589,0 70.121,-0.501 71.913,-2.66 z m 296.793,-71.242 v -72.93 h -71.957 -71.957 l -0.511,70.977 c -0.281,39.036 -0.086,72.084 0.435,73.439 0.744,1.938 16.165,2.354 72.468,1.953 l 71.522,-0.511 v -72.928 z m 298.134,71.568 c 3.346,-3.346 3.346,-139.79 0,-143.136 -1.73,-1.73 -20.78,-2.334 -73.675,-2.334 h -71.341 l -1.173,4.376 c -2.098,7.827 -1.377,135.621 0.787,139.666 1.934,3.613 4.803,3.762 72.541,3.762 52.262,0 71.132,-0.605 72.861,-2.334 z m -745.573,-148.526 c 2.663,-2.664 3.052,-11.843 3.025,-71.471 -0.016,-37.62804 -0.73,-69.52004 -1.588,-70.87004 -1.219,-1.92 -17.021,-2.345 -72.413,-1.945 l -70.855,0.511 -0.514,70.98404 c -0.471,65.008 -0.235,71.189 2.803,73.416 2.5,1.833 19.698,2.431 69.901,2.431 57.938,0 66.981,-0.396 69.641,-3.056 z m 298.201,1.438 c 1.92,-1.219 2.344,-17.216 1.944,-73.386 l -0.511,-71.82704 h -72.93 -72.929 l -0.511,71.82704 c -0.399,56.17 0.024,72.167 1.945,73.386 3.208,2.036 139.785,2.036 142.992,0 z m 298.847,-1.438 c 2.663,-2.664 3.052,-11.843 3.026,-71.471 -0.017,-37.62804 -0.731,-69.52004 -1.589,-70.87004 -1.219,-1.92 -17.409,-2.344 -74.357,-1.944 l -72.8,0.51 -0.514,70.98404 c -0.471,65.008 -0.234,71.189 2.803,73.416 2.504,1.836 20.087,2.431 71.846,2.431 59.706,0 68.922,-0.393 71.585,-3.056 z m 292.439,0.722 c 2.706,-2.706 3.387,-138.85404 0.715,-143.06304 -1.218,-1.919 -16.633,-2.345 -70.469,-1.945 l -68.909,0.512 -0.511,71.82704 c -0.399,56.17 0.024,72.167 1.945,73.386 4.206,2.669 134.524,1.989 137.229,-0.717 z m -1034.697,-220.82904 -0.51,-71.471 -68.909,-0.512 c -53.835,-0.399 -69.25,0.025 -70.469,1.944 -1.799,2.835 -2.214,133.805 -0.438,138.433 1.046,2.726 9.128,3.076 71.008,3.076 h 69.828 l -0.51,-71.47 z m 297.041,-0.486 v -70.984 l -71.827,-0.511 c -56.17,-0.399 -72.166,0.024 -73.386,1.944 -1.805,2.843 -2.21,133.813 -0.429,138.455 1.064,2.771 8.82,3.046 73.416,2.59 l 72.226,-0.51 v -70.984 z m 296.117,0.486 -0.51,-71.471 h -71.957 -71.957 l -0.512,69.029 c -0.281,37.966 -0.09,70.128 0.425,71.471 0.729,1.897 16.979,2.441 72.979,2.441 h 72.042 l -0.51,-71.47 z m 298.987,-0.486 v -70.984 l -72.8,-0.511 c -56.948,-0.399 -73.139,0.024 -74.357,1.945 -1.805,2.842 -2.21,133.812 -0.429,138.453 1.063,2.773 8.904,3.046 74.388,2.59 l 73.198,-0.509 v -70.984 z m -746.213,-78.181 c 1.726,-1.726 2.334,-19.936 2.334,-69.873 0,-58.807 -0.396,-67.935 -3.056,-70.596 -2.659,-2.658 -11.66,-3.056 -69.168,-3.056 -41.854,0 -67.492,0.738 -69.873,2.013 -3.612,1.933 -3.762,4.793 -3.762,71.633 0,38.291 0.583,70.203 1.296,70.916 0.713,0.713 32.481,1.297 70.595,1.297 51.308,0 69.906,-0.606 71.634,-2.334 z m 299.424,-69.493 c 0.399,-55.392 -0.024,-71.194 -1.944,-72.413 -2.834,-1.799 -137.693,-2.214 -142.321,-0.438 -2.727,1.046 -3.076,9.183 -3.076,71.632 0,38.749 0.594,71.047 1.32,71.772 0.726,0.727 33.763,1.091 73.415,0.811 l 72.096,-0.51 0.51,-70.854 z m 298.777,68.751 c 0.649,-1.692 1.181,-33.135 1.181,-69.873 0,-58.132 -0.396,-67.193 -3.056,-69.854 -2.662,-2.662 -11.836,-3.056 -71.112,-3.056 -43.194,0 -69.431,0.735 -71.818,2.013 -3.611,1.933 -3.762,4.793 -3.762,71.633 0,38.291 0.584,70.203 1.297,70.916 0.713,0.713 33.875,1.297 73.693,1.297 64.222,0 72.53,-0.348 73.577,-3.076 z m 291.718,0 c 0.649,-1.692 1.181,-33.46 1.181,-70.596 0,-49.922 -0.608,-68.128 -2.334,-69.854 -1.723,-1.723 -19.499,-2.333 -67.908,-2.333 -36.066,0 -66.959,0.531 -68.651,1.181 -2.727,1.046 -3.076,9.183 -3.076,71.632 0,38.749 0.584,71.036 1.297,71.749 0.713,0.713 32.125,1.297 69.804,1.297 60.675,0 68.641,-0.352 69.687,-3.076 z m -1035.85,-216.223 0.51,-70.522 -70.522,0.511 -70.523,0.51 -0.512,67.837 c -0.368,48.806 0.114,68.591 1.717,70.523 1.833,2.209 14.345,2.595 70.524,2.175 l 68.295,-0.511 0.511,-70.523 z m 295.856,68.834 c 1.577,-1.9 2.063,-22.051 1.696,-70.498 l -0.512,-67.837 h -72.929 -72.93 l -0.512,66.689 c -0.336,43.764 0.189,67.998 1.527,70.498 1.966,3.675 4.517,3.81 71.744,3.81 56.607,-10e-4 70.123,-0.501 71.916,-2.662 z m 297.302,-68.833 0.51,-70.522 -72.467,0.51 -72.468,0.51 -0.512,68.056 c -0.282,37.432 -0.086,69.166 0.435,70.522 0.745,1.942 16.127,2.357 72.469,1.956 l 71.522,-0.51 0.511,-70.522 z m 297.801,68.833 c 1.577,-1.9 2.062,-22.051 1.696,-70.498 l -0.512,-67.837 h -73.901 -73.902 l -0.512,66.689 c -0.336,43.764 0.189,67.998 1.527,70.498 1.967,3.676 4.523,3.81 72.717,3.81 57.428,-10e-4 71.092,-0.5 72.887,-2.662 z"
         id="path3545" /><text
         xml:space="preserve"
         style="font-size:72px;font-style:normal;font-weight:normal;line-height:125%;letter-spacing:0px;word-spacing:0px;fill:#000000;fill-opacity:1;stroke:none;font-family:Sans"
         x="1467.1599"
         y="1624"
         id="text3547"
         sodipodi:linespacing="125%"><tspan
           sodipodi:role="line"
           id="tspan3549"
           x="1467.1599"
           y="1624">0</tspan></text>
<text
         xml:space="preserve"
         style="font-size:72px;font-style:normal;font-weight:normal;line-height:125%;letter-spacing:0px;word-spacing:0px;fill:#000000;fill-opacity:1;stroke:none;font-family:Sans"
         x="1463.9958"
         y="1475.4585"
         id="text3551"
         sodipodi:linespacing="125%"><tspan
           sodipodi:role="line"
           id="tspan3553"
           x="1463.9958"
           y="1475.4585">1</tspan></text>
<text
         xml:space="preserve"
         style="font-size:72px;font-style:normal;font-weight:normal;line-height:125%;letter-spacing:0px;word-spacing:0px;fill:#000000;fill-opacity:1;stroke:none;font-family:Sans"
         x="1466.6326"
         y="1327.3569"
         id="text3555"
         sodipodi:linespacing="125%"><tspan
           sodipodi:role="line"
           id="tspan3557"
           x="1466.6326"
           y="1327.3569">2</tspan></text>
<text
         xml:space="preserve"
         style="font-size:72px;font-style:normal;font-weight:normal;line-height:125%;letter-spacing:0px;word-spacing:0px;fill:#000000;fill-opacity:1;stroke:none;font-family:Sans"
         x="1466.4216"
         y="1178.2705"
         id="text3559"
         sodipodi:linespacing="125%"><tspan
           sodipodi:role="line"
           id="tspan3561"
           x="1466.4216"
           y="1178.2705">3</tspan></text>
<text
         xml:space="preserve"
         style="font-size:72px;font-style:normal;font-weight:normal;line-height:125%;letter-spacing:0px;word-spacing:0px;fill:#000000;fill-opacity:1;stroke:none;font-family:Sans"
         x="1468.3904"
         y="1029.7295"
         id="text3563"
         sodipodi:linespacing="125%"><tspan
           sodipodi:role="line"
           id="tspan3565"
           x="1468.3904"
           y="1029.7295">4</tspan></text>
<text
         xml:space="preserve"
         style="font-size:72px;font-style:normal;font-weight:normal;line-height:125%;letter-spacing:0px;word-spacing:0px;fill:#000000;fill-opacity:1;stroke:none;font-family:Sans"
         x="1466.3513"
         y="880.64307"
         id="text3567"
         sodipodi:linespacing="125%"><tspan
           sodipodi:role="line"
           id="tspan3569"
           x="1466.3513"
           y="880.64307">5</tspan></text>
<text
         xml:space="preserve"
         style="font-size:72px;font-style:normal;font-weight:normal;line-height:125%;letter-spacing:0px;word-spacing:0px;fill:#000000;fill-opacity:1;stroke:none;font-family:Sans"
         x="1466.8787"
         y="732.5415"
         id="text3571"
         sodipodi:linespacing="125%"><tspan
           sodipodi:role="line"
           id="tspan3573"
           x="1466.8787"
           y="732.5415">6</tspan></text>
<text
         xml:space="preserve"
         style="font-size:72px;font-style:normal;font-weight:normal;line-height:125%;letter-spacing:0px;word-spacing:0px;fill:#000000;fill-opacity:1;stroke:none;font-family:Sans"
         x="1465.9998"
         y="584"
         id="text3575"
         sodipodi:linespacing="125%"><tspan
           sodipodi:role="line"
           id="tspan3577"
           x="1465.9998"
           y="584">7</tspan></text>
</g><g
       transform="translate(-1320.0001,0)"
       id="g3665"><text
         xml:space="preserve"
         style="font-size:40px;font-style:normal;font-weight:normal;line-height:125%;letter-spacing:0px;word-spacing:0px;fill:#000000;fill-opacity:1;stroke:none;font-family:Sans"
         x="1590.705"
         y="1764.9805"
         id="text3667"
         sodipodi:linespacing="125%"><tspan
           sodipodi:role="line"
           id="tspan3669"
           x="1590.705"
           y="1764.9805"
           style="font-size:72px">0 </tspan></text>
<text
         xml:space="preserve"
         style="font-size:72px;font-style:normal;font-weight:normal;line-height:125%;letter-spacing:0px;word-spacing:0px;fill:#000000;fill-opacity:1;stroke:none;font-family:Sans"
         x="1740.8601"
         y="1766"
         id="text3671"
         sodipodi:linespacing="125%"><tspan
           sodipodi:role="line"
           id="tspan3673"
           x="1740.8601"
           y="1766">1</tspan></text>
<text
         xml:space="preserve"
         style="font-size:72px;font-style:normal;font-weight:normal;line-height:125%;letter-spacing:0px;word-spacing:0px;fill:#000000;fill-opacity:1;stroke:none;font-family:Sans"
         x="1890.8571"
         y="1766"
         id="text3675"
         sodipodi:linespacing="125%"><tspan
           sodipodi:role="line"
           id="tspan3677"
           x="1890.8571"
           y="1766">2</tspan></text>
<text
         xml:space="preserve"
         style="font-size:72px;font-style:normal;font-weight:normal;line-height:125%;letter-spacing:0px;word-spacing:0px;fill:#000000;fill-opacity:1;stroke:none;font-family:Sans"
         x="2038.4281"
         y="1764.9805"
         id="text3679"
         sodipodi:linespacing="125%"><tspan
           sodipodi:role="line"
           id="tspan3681"
           x="2038.4281"
           y="1764.9805">3</tspan></text>
<text
         xml:space="preserve"
         style="font-size:72px;font-style:normal;font-weight:normal;line-height:125%;letter-spacing:0px;word-spacing:0px;fill:#000000;fill-opacity:1;stroke:none;font-family:Sans"
         x="2186.9485"
         y="1766"
         id="text3683"
         sodipodi:linespacing="125%"><tspan
           sodipodi:role="line"
           id="tspan3685"
           x="2186.9485"
           y="1766">4</tspan></text>
<text
         xml:space="preserve"
         style="font-size:72px;font-style:normal;font-weight:normal;line-height:125%;letter-spacing:0px;word-spacing:0px;fill:#000000;fill-opacity:1;stroke:none;font-family:Sans"
         x="2335.4512"
         y="1764.9805"
         id="text3687"
         sodipodi:linespacing="125%"><tspan
           sodipodi:role="line"
           id="tspan3689"
           x="2335.4512"
           y="1764.9805">5</tspan></text>
<text
         xml:space="preserve"
         style="font-size:72px;font-style:normal;font-weight:normal;line-height:125%;letter-spacing:0px;word-spacing:0px;fill:#000000;fill-opacity:1;stroke:none;font-family:Sans"
         x="2631.9998"
         y="1766"
         id="text3691"
         sodipodi:linespacing="125%"><tspan
           sodipodi:role="line"
           id="tspan3693"
           x="2631.9998"
           y="1766">7</tspan></text>
<text
         xml:space="preserve"
         style="font-size:72px;font-style:normal;font-weight:normal;line-height:125%;letter-spacing:0px;word-spacing:0px;fill:#000000;fill-opacity:1;stroke:none;font-family:Sans"
         x="2483.2334"
         y="1764.9805"
         id="text3695"
         sodipodi:linespacing="125%"><tspan
           sodipodi:role="line"
           id="tspan3697"
           x="2483.2334"
           y="1764.9805">6</tspan></text>
<path
         id="path3699"
         d="m 1536.3661,1679.496 c -3.4,-3.4 -3.4,-1191.86304 0,-1195.26304 3.4,-3.4 1186.028,-3.4 1189.429,0 3.399,3.4 3.399,1191.86304 0,1195.26304 -3.401,3.399 -1186.029,3.399 -1189.429,0 z m 294.757,-75.052 c 0.336,-43.764 -0.188,-67.998 -1.526,-70.498 -1.966,-3.673 -4.51,-3.81 -70.621,-3.81 -50.749,0 -69.189,0.606 -70.917,2.333 -1.725,1.726 -2.333,19.895 -2.333,69.688 0,37.045 0.594,67.948 1.32,68.675 0.726,0.726 33.326,1.09 72.443,0.81 l 71.123,-0.51 0.511,-66.688 z m 297.04,-3.323 v -70.013 h -72.93 -72.929 l -0.511,70.522 -0.511,70.521 73.44,-0.51 73.439,-0.51 v -70.01 z m 300.009,3.323 c 0.335,-43.764 -0.189,-67.998 -1.527,-70.498 -1.967,-3.676 -4.522,-3.81 -72.566,-3.81 -52.261,0 -71.131,0.604 -72.86,2.333 -1.726,1.726 -2.334,19.895 -2.334,69.688 0,37.045 0.594,67.948 1.319,68.674 0.725,0.726 34.2,1.091 74.388,0.811 l 73.068,-0.51 0.512,-66.688 z m 291.716,-1.149 c 0.368,-48.806 -0.114,-68.591 -1.717,-70.523 -1.834,-2.209 -14.345,-2.595 -70.524,-2.175 l -68.295,0.511 -0.511,70.523 -0.51,70.522 70.522,-0.511 70.522,-0.511 0.513,-67.836 z m -1039.184,-76.284 c 2.729,-1.048 3.077,-9.384 3.077,-73.902 v -72.722 h -69.804 c -61.858,0 -69.938,0.351 -70.984,3.077 -0.649,1.691 -1.181,33.897 -1.181,71.567 0,50.679 0.607,69.099 2.333,70.826 1.723,1.723 19.499,2.333 67.909,2.333 36.065,0 66.958,-0.53 68.65,-1.179 z m 297.367,-1.251 c 3.037,-2.227 3.272,-8.408 2.803,-73.416 l -0.515,-70.984 -71.827,-0.51 c -56.17,-0.399 -72.166,0.024 -73.386,1.944 -0.856,1.351 -1.571,33.242 -1.588,70.87 -0.026,59.628 0.362,68.807 3.026,71.471 2.661,2.661 11.79,3.056 70.612,3.056 50.981,0 68.372,-0.597 70.875,-2.431 z m 295.791,1.251 c 2.729,-1.048 3.077,-9.386 3.077,-73.926 v -72.745 l -72.443,0.51 -72.443,0.51 -0.511,71.827 c -0.399,56.17 0.025,72.167 1.945,73.386 2.834,1.799 135.748,2.214 140.375,0.438 z m 299.313,-1.251 c 3.037,-2.227 3.272,-8.408 2.802,-73.416 l -0.514,-70.984 -72.8,-0.51 c -56.948,-0.399 -73.139,0.024 -74.357,1.944 -0.857,1.351 -1.572,33.242 -1.589,70.87 -0.025,59.628 0.363,68.807 3.026,71.471 2.663,2.662 11.879,3.056 71.585,3.056 51.759,0 69.341,-0.595 71.847,-2.431 z m -742.772,-150.393 c 0.649,-1.692 1.181,-33.572 1.181,-70.846 0,-59.016 -0.395,-68.164 -3.056,-70.825 -2.659,-2.658 -11.66,-3.057 -69.168,-3.057 -41.854,0 -67.492,0.739 -69.873,2.014 -3.613,1.934 -3.762,4.804 -3.762,72.605 0,38.825 0.583,71.175 1.296,71.888 0.713,0.714 33,1.297 71.749,1.297 62.449,0 70.587,-0.35 71.633,-3.076 z m 298.271,-69.724 c 0.399,-56.17 -0.024,-72.166 -1.944,-73.385 -2.834,-1.799 -137.693,-2.214 -142.321,-0.438 -2.729,1.048 -3.076,9.386 -3.076,73.925 v 72.745 l 73.416,-0.51 73.415,-0.51 0.51,-71.827 z m 298.777,69.724 c 0.649,-1.692 1.181,-33.572 1.181,-70.846 0,-59.016 -0.395,-68.164 -3.056,-70.825 -2.662,-2.662 -11.836,-3.057 -71.112,-3.057 -43.194,0 -69.431,0.736 -71.818,2.014 -3.613,1.934 -3.762,4.804 -3.762,72.605 0,38.825 0.584,71.175 1.297,71.888 0.713,0.714 33.875,1.297 73.693,1.297 64.222,0 72.53,-0.348 73.577,-3.076 z m 291.718,0 c 0.649,-1.692 1.181,-33.897 1.181,-71.567 0,-50.679 -0.607,-69.1 -2.334,-70.826 -1.723,-1.723 -19.499,-2.334 -67.908,-2.334 -36.066,0 -66.959,0.531 -68.651,1.181 -2.729,1.048 -3.076,9.384 -3.076,73.901 v 72.722 h 69.805 c 61.856,-10e-4 69.937,-0.351 70.983,-3.077 z m -1036.361,-220.574 v -72.93 l -67.837,-0.512 c -48.447,-0.365 -68.598,0.119 -70.498,1.696 -3.667,3.044 -3.956,139.685 -0.303,143.337 1.778,1.778 19.125,2.232 70.499,1.848 l 68.14,-0.511 v -72.928 z m 296.366,71.242 c 1.579,-1.902 2.062,-22.811 1.696,-73.415 l -0.511,-70.756 -70.984,-0.514 c -65.007,-0.471 -71.188,-0.234 -73.415,2.803 -3.138,4.279 -3.525,134.975 -0.418,140.78 1.933,3.611 4.793,3.762 71.719,3.762 56.589,0 70.121,-0.501 71.913,-2.66 z m 296.793,-71.242 v -72.93 h -71.957 -71.957 l -0.511,70.977 c -0.281,39.036 -0.086,72.084 0.435,73.439 0.744,1.938 16.165,2.354 72.468,1.953 l 71.522,-0.511 v -72.928 z m 298.134,71.568 c 3.346,-3.346 3.346,-139.79 0,-143.136 -1.73,-1.73 -20.78,-2.334 -73.675,-2.334 h -71.341 l -1.173,4.376 c -2.098,7.827 -1.377,135.621 0.787,139.666 1.934,3.613 4.803,3.762 72.541,3.762 52.262,0 71.132,-0.605 72.861,-2.334 z m -745.573,-148.526 c 2.663,-2.664 3.052,-11.843 3.025,-71.471 -0.016,-37.62804 -0.73,-69.52004 -1.588,-70.87004 -1.219,-1.92 -17.021,-2.345 -72.413,-1.945 l -70.855,0.511 -0.514,70.98404 c -0.471,65.008 -0.235,71.189 2.803,73.416 2.5,1.833 19.698,2.431 69.901,2.431 57.938,0 66.981,-0.396 69.641,-3.056 z m 298.201,1.438 c 1.92,-1.219 2.344,-17.216 1.944,-73.386 l -0.511,-71.82704 h -72.93 -72.929 l -0.511,71.82704 c -0.399,56.17 0.024,72.167 1.945,73.386 3.208,2.036 139.785,2.036 142.992,0 z m 298.847,-1.438 c 2.663,-2.664 3.052,-11.843 3.026,-71.471 -0.017,-37.62804 -0.731,-69.52004 -1.589,-70.87004 -1.219,-1.92 -17.409,-2.344 -74.357,-1.944 l -72.8,0.51 -0.514,70.98404 c -0.471,65.008 -0.234,71.189 2.803,73.416 2.504,1.836 20.087,2.431 71.846,2.431 59.706,0 68.922,-0.393 71.585,-3.056 z m 292.439,0.722 c 2.706,-2.706 3.387,-138.85404 0.715,-143.06304 -1.218,-1.919 -16.633,-2.345 -70.469,-1.945 l -68.909,0.512 -0.511,71.82704 c -0.399,56.17 0.024,72.167 1.945,73.386 4.206,2.669 134.524,1.989 137.229,-0.717 z m -1034.697,-220.82904 -0.51,-71.471 -68.909,-0.512 c -53.835,-0.399 -69.25,0.025 -70.469,1.944 -1.799,2.835 -2.214,133.805 -0.438,138.433 1.046,2.726 9.128,3.076 71.008,3.076 h 69.828 l -0.51,-71.47 z m 297.041,-0.486 v -70.984 l -71.827,-0.511 c -56.17,-0.399 -72.166,0.024 -73.386,1.944 -1.805,2.843 -2.21,133.813 -0.429,138.455 1.064,2.771 8.82,3.046 73.416,2.59 l 72.226,-0.51 v -70.984 z m 296.117,0.486 -0.51,-71.471 h -71.957 -71.957 l -0.512,69.029 c -0.281,37.966 -0.09,70.128 0.425,71.471 0.729,1.897 16.979,2.441 72.979,2.441 h 72.042 l -0.51,-71.47 z m 298.987,-0.486 v -70.984 l -72.8,-0.511 c -56.948,-0.399 -73.139,0.024 -74.357,1.945 -1.805,2.842 -2.21,133.812 -0.429,138.453 1.063,2.773 8.904,3.046 74.388,2.59 l 73.198,-0.509 v -70.984 z m -746.213,-78.181 c 1.726,-1.726 2.334,-19.936 2.334,-69.873 0,-58.807 -0.396,-67.935 -3.056,-70.596 -2.659,-2.658 -11.66,-3.056 -69.168,-3.056 -41.854,0 -67.492,0.738 -69.873,2.013 -3.612,1.933 -3.762,4.793 -3.762,71.633 0,38.291 0.583,70.203 1.296,70.916 0.713,0.713 32.481,1.297 70.595,1.297 51.308,0 69.906,-0.606 71.634,-2.334 z m 299.424,-69.493 c 0.399,-55.392 -0.024,-71.194 -1.944,-72.413 -2.834,-1.799 -137.693,-2.214 -142.321,-0.438 -2.727,1.046 -3.076,9.183 -3.076,71.632 0,38.749 0.594,71.047 1.32,71.772 0.726,0.727 33.763,1.091 73.415,0.811 l 72.096,-0.51 0.51,-70.854 z m 298.777,68.751 c 0.649,-1.692 1.181,-33.135 1.181,-69.873 0,-58.132 -0.396,-67.193 -3.056,-69.854 -2.662,-2.662 -11.836,-3.056 -71.112,-3.056 -43.194,0 -69.431,0.735 -71.818,2.013 -3.611,1.933 -3.762,4.793 -3.762,71.633 0,38.291 0.584,70.203 1.297,70.916 0.713,0.713 33.875,1.297 73.693,1.297 64.222,0 72.53,-0.348 73.577,-3.076 z m 291.718,0 c 0.649,-1.692 1.181,-33.46 1.181,-70.596 0,-49.922 -0.608,-68.128 -2.334,-69.854 -1.723,-1.723 -19.499,-2.333 -67.908,-2.333 -36.066,0 -66.959,0.531 -68.651,1.181 -2.727,1.046 -3.076,9.183 -3.076,71.632 0,38.749 0.584,71.036 1.297,71.749 0.713,0.713 32.125,1.297 69.804,1.297 60.675,0 68.641,-0.352 69.687,-3.076 z m -1035.85,-216.223 0.51,-70.522 -70.522,0.511 -70.523,0.51 -0.512,67.837 c -0.368,48.806 0.114,68.591 1.717,70.523 1.833,2.209 14.345,2.595 70.524,2.175 l 68.295,-0.511 0.511,-70.523 z m 295.856,68.834 c 1.577,-1.9 2.063,-22.051 1.696,-70.498 l -0.512,-67.837 h -72.929 -72.93 l -0.512,66.689 c -0.336,43.764 0.189,67.998 1.527,70.498 1.966,3.675 4.517,3.81 71.744,3.81 56.607,-10e-4 70.123,-0.501 71.916,-2.662 z m 297.302,-68.833 0.51,-70.522 -72.467,0.51 -72.468,0.51 -0.512,68.056 c -0.282,37.432 -0.086,69.166 0.435,70.522 0.745,1.942 16.127,2.357 72.469,1.956 l 71.522,-0.51 0.511,-70.522 z m 297.801,68.833 c 1.577,-1.9 2.062,-22.051 1.696,-70.498 l -0.512,-67.837 h -73.901 -73.902 l -0.512,66.689 c -0.336,43.764 0.189,67.998 1.527,70.498 1.967,3.676 4.523,3.81 72.717,3.81 57.428,-10e-4 71.092,-0.5 72.887,-2.662 z"
         inkscape:connector-curvature="0" /><text
         sodipodi:linespacing="125%"
         id="text3701"
         y="1624"
         x="1467.1599"
         style="font-size:72px;font-style:normal;font-weight:normal;line-height:125%;letter-spacing:0px;word-spacing:0px;fill:#000000;fill-opacity:1;stroke:none;font-family:Sans"
         xml:space="preserve"><tspan
           y="1624"
           x="1467.1599"
           id="tspan3703"
           sodipodi:role="line">0</tspan></text>
<text
         sodipodi:linespacing="125%"
         id="text3705"
         y="1475.4585"
         x="1463.9958"
         style="font-size:72px;font-style:normal;font-weight:normal;line-height:125%;letter-spacing:0px;word-spacing:0px;fill:#000000;fill-opacity:1;stroke:none;font-family:Sans"
         xml:space="preserve"><tspan
           y="1475.4585"
           x="1463.9958"
           id="tspan3707"
           sodipodi:role="line">1</tspan></text>
<text
         sodipodi:linespacing="125%"
         id="text3709"
         y="1327.3569"
         x="1466.6326"
         style="font-size:72px;font-style:normal;font-weight:normal;line-height:125%;letter-spacing:0px;word-spacing:0px;fill:#000000;fill-opacity:1;stroke:none;font-family:Sans"
         xml:space="preserve"><tspan
           y="1327.3569"
           x="1466.6326"
           id="tspan3711"
           sodipodi:role="line">2</tspan></text>
<text
         sodipodi:linespacing="125%"
         id="text3713"
         y="1178.2705"
         x="1466.4216"
         style="font-size:72px;font-style:normal;font-weight:normal;line-height:125%;letter-spacing:0px;word-spacing:0px;fill:#000000;fill-opacity:1;stroke:none;font-family:Sans"
         xml:space="preserve"><tspan
           y="1178.2705"
           x="1466.4216"
           id="tspan3715"
           sodipodi:role="line">3</tspan></text>
<text
         sodipodi:linespacing="125%"
         id="text3717"
         y="1029.7295"
         x="1468.3904"
         style="font-size:72px;font-style:normal;font-weight:normal;line-height:125%;letter-spacing:0px;word-spacing:0px;fill:#000000;fill-opacity:1;stroke:none;font-family:Sans"
         xml:space="preserve"><tspan
           y="1029.7295"
           x="1468.3904"
           id="tspan3719"
           sodipodi:role="line">4</tspan></text>
<text
         sodipodi:linespacing="125%"
         id="text3721"
         y="880.64307"
         x="1466.3513"
         style="font-size:72px;font-style:normal;font-weight:normal;line-height:125%;letter-spacing:0px;word-spacing:0px;fill:#000000;fill-opacity:1;stroke:none;font-family:Sans"
         xml:space="preserve"><tspan
           y="880.64307"
           x="1466.3513"
           id="tspan3723"
           sodipodi:role="line">5</tspan></text>
<text
         sodipodi:linespacing="125%"
         id="text3725"
         y="732.5415"
         x="1466.8787"
         style="font-size:72px;font-style:normal;font-weight:normal;line-height:125%;letter-spacing:0px;word-spacing:0px;fill:#000000;fill-opacity:1;stroke:none;font-family:Sans"
         xml:space="preserve"><tspan
           y="732.5415"
           x="1466.8787"
           id="tspan3727"
           sodipodi:role="line">6</tspan></text>
<text
         sodipodi:linespacing="125%"
         id="text3729"
         y="584"
         x="1465.9998"
         style="font-size:72px;font-style:normal;font-weight:normal;line-height:125%;letter-spacing:0px;word-spacing:0px;fill:#000000;fill-opacity:1;stroke:none;font-family:Sans"
         xml:space="preserve"><tspan
           y="584"
           x="1465.9998"
           id="tspan3731"
           sodipodi:role="line">7</tspan></text>
</g></g><g
     id="g3416"
     transform="matrix(3.067229,0,0,3.067558,129.22498,-3047.7501)"><path
       id="path3418"
       d="m 280.786,1130.715 h 27 v -3 h -27 v 3 z"
       inkscape:connector-curvature="0"
       style="fill:#ffffff;stroke:#000000;stroke-width:1.63;stroke-linejoin:round" /><path
       id="path3420"
       d="m 283.786,1127.715 v -4 h 21 v 4 h -21 z"
       inkscape:connector-curvature="0"
       style="fill:#ffffff;stroke:#000000;stroke-width:1.63;stroke-linejoin:round" /><path
       id="path3422"
       d="m 282.786,1105.714 v -5 h 4 v 2 h 5 v -2 h 5 v 2 h 5 v -2 h 4 v 5"
       inkscape:connector-curvature="0"
       style="fill:#ffffff;stroke:#000000;stroke-width:1.63;stroke-linejoin:round" /><path
       id="path3424"
       d="m 305.786,1105.714 -3,3 h -17 l -3,-3"
       inkscape:connector-curvature="0"
       style="fill:#ffffff;stroke:#000000;stroke-width:1.63;stroke-linecap:round;stroke-linejoin:round" /><path
       id="path3426"
       d="m 302.786,1108.714 v 12.5 h -17 v -12.5"
       inkscape:connector-curvature="0"
       style="fill:#ffffff;stroke:#000000;stroke-width:1.63" /><path
       id="path3428"
       d="m 302.786,1121.215 1.5,2.5 h -20 l 1.5,-2.5"
       inkscape:connector-curvature="0"
       style="fill:#ffffff;stroke:#000000;stroke-width:1.63;stroke-linecap:round;stroke-linejoin:round" /><path
       id="path3430"
       d="m 282.786,1105.714 h 23"
       inkscape:connector-curvature="0"
       style="fill:none;stroke:#000000;stroke-width:1.63;stroke-linecap:round" /></g><g
     id="g46345"
     transform="translate(2234.2147,-418.78397)"><path
       id="path46347"
       d="m -227.128,1436.207 h 85.55 v -9.705 h -85.55 v 9.096 0.609 z"
       inkscape:connector-curvature="0"
       style="fill:none;stroke:#ffffff;stroke-width:10;stroke-linejoin:round" /><path
       id="path46349"
       d="m -217.25,1415.526 5.106,-8.088 h 54.831 l 5.106,8.088 h -65.043 z"
       inkscape:connector-curvature="0"
       style="fill:none;stroke:#ffffff;stroke-width:5;stroke-linejoin:round" /><path
       id="path46351"
       d="m -217.273,1428.467 v -12.94 h 65.519 v 12.94 h -65.519 z"
       inkscape:connector-curvature="0"
       style="fill:none;stroke:#ffffff;stroke-width:10;stroke-linejoin:round" /><path
       id="path46353"
       d="m -211.43,1407.438 v -42.055 h 53.403 v 42.055 h -53.403 z"
       inkscape:connector-curvature="0"
       style="fill:none;stroke:#ffffff;stroke-width:10" /><path
       id="path46355"
       d="m -210.537,1367.259 -10.211,-8.087 72.719,-0.179 -10.212,8.087 -52.296,0.179 z"
       inkscape:connector-curvature="0"
       style="fill:none;stroke:#ffffff;stroke-width:10;stroke-linejoin:round" /><path
       id="path46357"
       d="m -220.748,1357.297 v -14.746 h 13.901 v 6.47 h 14.02 v -6.47 h 18.162 v 6.47 h 12.092 v -6.47 h 14.401 v 14.746 h -72.576 z"
       inkscape:connector-curvature="0"
       style="fill:none;stroke:#ffffff;stroke-width:10;stroke-linejoin:round" /><path
       id="path46359"
       d="m -225.792,1436.134 h 82.814 v -9.203 h -82.814 v 9.203 z"
       inkscape:connector-curvature="0"
       style="stroke:#000000;stroke-width:1.5;stroke-linejoin:round" /><path
       id="path46361"
       d="m -215.057,1414.66 4.601,-7.669 h 52.143 l 4.601,7.669 h -61.345 z"
       inkscape:connector-curvature="0"
       style="stroke:#000000;stroke-width:1.5;stroke-linejoin:round" /><path
       id="path46363"
       d="m -216.591,1426.931 v -12.271 h 64.412 v 12.271 h -64.412 z"
       inkscape:connector-curvature="0"
       style="stroke:#000000;stroke-width:1.5;stroke-linejoin:round" /><path
       id="path46365"
       d="m -210.456,1406.991 v -39.878 h 52.143 v 39.878 h -52.143 z"
       inkscape:connector-curvature="0"
       style="stroke:#000000;stroke-width:1.5" /><path
       id="path46367"
       d="m -210.456,1367.113 -9.202,-7.669 h 70.547 l -9.202,7.669 h -52.143 z"
       inkscape:connector-curvature="0"
       style="stroke:#000000;stroke-width:1.5;stroke-linejoin:round" /><path
       id="path46369"
       d="m -219.658,1359.444 v -15.338 h 12.27 v 6.136 h 15.336 v -6.136 h 15.336 v 6.136 h 15.336 v -6.136 h 12.27 v 15.338 h -70.548 z"
       inkscape:connector-curvature="0"
       style="stroke:#000000;stroke-width:1.5;stroke-linejoin:round" /><path
       id="path46371"
       d="m -216.591,1423.969 h 64.412 l 0,0"
       inkscape:connector-curvature="0"
       style="fill:none;stroke:#ffffff;stroke-width:4;stroke-linecap:round" /><path
       id="path46373"
       d="m -213.523,1412.056 h 58.277"
       inkscape:connector-curvature="0"
       style="fill:none;stroke:#ffffff;stroke-width:4;stroke-linecap:round" /><path
       id="path46375"
       d="m -210.456,1406.991 h 52.143"
       inkscape:connector-curvature="0"
       style="fill:none;stroke:#ffffff;stroke-linecap:round" /><path
       id="path46377"
       d="m -210.456,1367.113 h 52.143"
       inkscape:connector-curvature="0"
       style="fill:none;stroke:#ffffff;stroke-linecap:round" /><path
       id="path46379"
       d="m -219.658,1359.444 h 70.547"
       inkscape:connector-curvature="0"
       style="fill:none;stroke:#ffffff;stroke-width:4;stroke-linecap:round" /></g></svg>