<?xml version="1.0" encoding="UTF-8" standalone="no"?>
<!-- Generator: Adobe Illustrator 14.0.0, SVG Export Plug-In . SVG Version: 6.00 Build 43363)  -->

<svg
   xmlns:dc="http://purl.org/dc/elements/1.1/"
   xmlns:cc="http://creativecommons.org/ns#"
   xmlns:rdf="http://www.w3.org/1999/02/22-rdf-syntax-ns#"
   xmlns:svg="http://www.w3.org/2000/svg"
   xmlns="http://www.w3.org/2000/svg"
   xmlns:sodipodi="http://sodipodi.sourceforge.net/DTD/sodipodi-0.dtd"
   xmlns:inkscape="http://www.inkscape.org/namespaces/inkscape"
   version="1.1"
   id="svg2"
   x="0px"
   y="0px"
   width="1266.4382"
   height="1294.3169"
   viewBox="0 0 1266.4382 1294.317"
   enable-background="new 0 0 1400 1900"
   xml:space="preserve"
   inkscape:version="0.48.5 r10040"
   sodipodi:docname="exampleBoard.svg"><metadata
     id="metadata299"><rdf:RDF><cc:Work
         rdf:about=""><dc:format>image/svg+xml</dc:format><dc:type
           rdf:resource="http://purl.org/dc/dcmitype/StillImage" /><dc:title></dc:title></cc:Work></rdf:RDF></metadata><defs
     id="defs297"><marker
       inkscape:stockid="Arrow2Lend"
       orient="auto"
       refY="0"
       refX="0"
       id="Arrow2Lend"
       style="overflow:visible"><path
         id="path9145"
         style="font-size:12px;fill-rule:evenodd;stroke-width:0.625;stroke-linejoin:round"
         d="M 8.7185878,4.0337352 -2.2072895,0.01601326 8.7185884,-4.0017078 c -1.7454984,2.3720609 -1.7354408,5.6174519 -6e-7,8.035443 z"
         transform="matrix(-1.1,0,0,-1.1,-1.1,0)"
         inkscape:connector-curvature="0" /></marker></defs><sodipodi:namedview
     pagecolor="#ffffff"
     bordercolor="#666666"
     borderopacity="1"
     objecttolerance="10"
     gridtolerance="10"
     guidetolerance="10"
     inkscape:pageopacity="0"
     inkscape:pageshadow="2"
     inkscape:window-width="1280"
     inkscape:window-height="676"
     id="namedview295"
     showgrid="false"
     fit-margin-top="5"
     fit-margin-left="5"
     fit-margin-right="5"
     fit-margin-bottom="5"
     inkscape:zoom="0.35355339"
     inkscape:cx="1277.5447"
     inkscape:cy="539.13395"
     inkscape:window-x="0"
     inkscape:window-y="0"
     inkscape:window-maximized="0"
     inkscape:current-layer="svg2" /><text
     xml:space="preserve"
     style="font-size:40px;font-style:normal;font-weight:normal;line-height:125%;letter-spacing:0px;word-spacing:0px;fill:#000000;fill-opacity:1;stroke:none;font-family:Sans"
     x="463.0936"
     y="1253.3171"
     id="text3294"
     sodipodi:linespacing="125%"><tspan
       sodipodi:role="line"
       id="tspan3296"
       x="463.0936"
       y="1253.3171" /></text>
<text
     xml:space="preserve"
     style="font-size:40px;font-style:normal;font-weight:normal;line-height:125%;letter-spacing:0px;word-spacing:0px;fill:#000000;fill-opacity:1;stroke:none;font-family:Sans"
     x="123.7988"
     y="1288.2975"
     id="text3667"
     sodipodi:linespacing="125%"><tspan
       sodipodi:role="line"
       id="tspan3669"
       x="123.7988"
       y="1288.2975"
       style="font-size:72px">0 </tspan></text>
<text
     xml:space="preserve"
     style="font-size:72px;font-style:normal;font-weight:normal;line-height:125%;letter-spacing:0px;word-spacing:0px;fill:#000000;fill-opacity:1;stroke:none;font-family:Sans"
     x="273.95395"
     y="1289.317"
     id="text3671"
     sodipodi:linespacing="125%"><tspan
       sodipodi:role="line"
       id="tspan3673"
       x="273.95395"
       y="1289.317">1</tspan></text>
<text
     xml:space="preserve"
     style="font-size:72px;font-style:normal;font-weight:normal;line-height:125%;letter-spacing:0px;word-spacing:0px;fill:#000000;fill-opacity:1;stroke:none;font-family:Sans"
     x="423.9509"
     y="1289.317"
     id="text3675"
     sodipodi:linespacing="125%"><tspan
       sodipodi:role="line"
       id="tspan3677"
       x="423.9509"
       y="1289.317">2</tspan></text>
<text
     xml:space="preserve"
     style="font-size:72px;font-style:normal;font-weight:normal;line-height:125%;letter-spacing:0px;word-spacing:0px;fill:#000000;fill-opacity:1;stroke:none;font-family:Sans"
     x="571.52191"
     y="1288.2975"
     id="text3679"
     sodipodi:linespacing="125%"><tspan
       sodipodi:role="line"
       id="tspan3681"
       x="571.52191"
       y="1288.2975">3</tspan></text>
<text
     xml:space="preserve"
     style="font-size:72px;font-style:normal;font-weight:normal;line-height:125%;letter-spacing:0px;word-spacing:0px;fill:#000000;fill-opacity:1;stroke:none;font-family:Sans"
     x="720.0423"
     y="1289.317"
     id="text3683"
     sodipodi:linespacing="125%"><tspan
       sodipodi:role="line"
       id="tspan3685"
       x="720.0423"
       y="1289.317">4</tspan></text>
<text
     xml:space="preserve"
     style="font-size:72px;font-style:normal;font-weight:normal;line-height:125%;letter-spacing:0px;word-spacing:0px;fill:#000000;fill-opacity:1;stroke:none;font-family:Sans"
     x="868.54498"
     y="1288.2975"
     id="text3687"
     sodipodi:linespacing="125%"><tspan
       sodipodi:role="line"
       id="tspan3689"
       x="868.54498"
       y="1288.2975">5</tspan></text>
<text
     xml:space="preserve"
     style="font-size:72px;font-style:normal;font-weight:normal;line-height:125%;letter-spacing:0px;word-spacing:0px;fill:#000000;fill-opacity:1;stroke:none;font-family:Sans"
     x="1165.0936"
     y="1289.317"
     id="text3691"
     sodipodi:linespacing="125%"><tspan
       sodipodi:role="line"
       id="tspan3693"
       x="1165.0936"
       y="1289.317">7</tspan></text>
<text
     xml:space="preserve"
     style="font-size:72px;font-style:normal;font-weight:normal;line-height:125%;letter-spacing:0px;word-spacing:0px;fill:#000000;fill-opacity:1;stroke:none;font-family:Sans"
     x="1016.3272"
     y="1288.2975"
     id="text3695"
     sodipodi:linespacing="125%"><tspan
       sodipodi:role="line"
       id="tspan3697"
       x="1016.3272"
       y="1288.2975">6</tspan></text>
<path
     id="path3699"
     d="m 69.459945,1202.813 c -3.4,-3.4 -3.4,-1191.863 0,-1195.2629997 3.4,-3.4 1186.027955,-3.4 1189.428955,0 3.399,3.3999997 3.399,1191.8629997 0,1195.2629997 -3.401,3.399 -1186.028955,3.399 -1189.428955,0 z m 294.756995,-75.052 c 0.336,-43.764 -0.188,-67.998 -1.526,-70.498 -1.966,-3.673 -4.51,-3.81 -70.621,-3.81 -50.749,0 -69.189,0.606 -70.917,2.333 -1.725,1.726 -2.333,19.895 -2.333,69.688 0,37.045 0.594,67.948 1.32,68.675 0.726,0.726 33.326,1.09 72.443,0.81 l 71.123,-0.51 0.511,-66.688 z m 297.04,-3.323 v -70.013 h -72.93 -72.929 l -0.511,70.522 -0.511,70.521 73.44,-0.51 73.439,-0.51 v -70.01 z m 300.009,3.323 c 0.335,-43.764 -0.189,-67.998 -1.527,-70.498 -1.967,-3.676 -4.522,-3.81 -72.566,-3.81 -52.261,0 -71.131,0.604 -72.86,2.333 -1.726,1.726 -2.334,19.895 -2.334,69.688 0,37.045 0.594,67.948 1.319,68.674 0.725,0.726 34.2,1.091 74.388,0.811 l 73.068,-0.51 0.512,-66.688 z m 291.71596,-1.149 c 0.368,-48.806 -0.114,-68.591 -1.717,-70.523 -1.834,-2.209 -14.345,-2.595 -70.524,-2.175 l -68.295,0.511 -0.511,70.523 -0.51,70.522 70.522,-0.511 70.522,-0.511 0.513,-67.836 z M 213.79794,1050.328 c 2.729,-1.048 3.077,-9.384 3.077,-73.90196 v -72.722 h -69.804 c -61.857995,0 -69.937995,0.351 -70.983995,3.077 -0.649,1.691 -1.181,33.897 -1.181,71.567 0,50.67896 0.607,69.09896 2.333,70.82596 1.723,1.723 19.499,2.333 67.908995,2.333 36.065,0 66.958,-0.53 68.65,-1.179 z m 297.367,-1.251 c 3.037,-2.227 3.272,-8.408 2.803,-73.41596 l -0.515,-70.984 -71.827,-0.51 c -56.17,-0.399 -72.166,0.024 -73.386,1.944 -0.856,1.351 -1.571,33.242 -1.588,70.87 -0.026,59.62796 0.362,68.80696 3.026,71.47096 2.661,2.661 11.79,3.056 70.612,3.056 50.981,0 68.372,-0.597 70.875,-2.431 z m 295.791,1.251 c 2.729,-1.048 3.077,-9.386 3.077,-73.92596 v -72.745 l -72.443,0.51 -72.443,0.51 -0.511,71.827 c -0.399,56.16996 0.025,72.16696 1.945,73.38596 2.834,1.799 135.748,2.214 140.375,0.438 z m 299.31296,-1.251 c 3.037,-2.227 3.272,-8.408 2.802,-73.41596 l -0.514,-70.984 -72.8,-0.51 c -56.94796,-0.399 -73.13896,0.024 -74.35696,1.944 -0.857,1.351 -1.572,33.242 -1.589,70.87 -0.025,59.62796 0.363,68.80696 3.026,71.47096 2.663,2.662 11.879,3.056 71.58496,3.056 51.759,0 69.341,-0.595 71.847,-2.431 z M 363.49694,898.68404 c 0.649,-1.692 1.181,-33.572 1.181,-70.846 0,-59.016 -0.395,-68.164 -3.056,-70.825 -2.659,-2.658 -11.66,-3.057 -69.168,-3.057 -41.854,0 -67.492,0.739 -69.873,2.014 -3.613,1.934 -3.762,4.804 -3.762,72.605 0,38.825 0.583,71.175 1.296,71.888 0.713,0.714 33,1.297 71.749,1.297 62.449,0 70.587,-0.35 71.633,-3.076 z m 298.271,-69.724 c 0.399,-56.17 -0.024,-72.166 -1.944,-73.385 -2.834,-1.799 -137.693,-2.214 -142.321,-0.438 -2.729,1.048 -3.076,9.386 -3.076,73.925 v 72.745 l 73.416,-0.51 73.415,-0.51 0.51,-71.827 z m 298.777,69.724 c 0.649,-1.692 1.181,-33.572 1.181,-70.846 0,-59.016 -0.395,-68.164 -3.056,-70.825 -2.662,-2.662 -11.836,-3.057 -71.112,-3.057 -43.194,0 -69.431,0.736 -71.818,2.014 -3.613,1.934 -3.762,4.804 -3.762,72.605 0,38.825 0.584,71.175 1.297,71.888 0.713,0.714 33.875,1.297 73.693,1.297 64.222,0 72.53,-0.348 73.577,-3.076 z m 291.71796,0 c 0.649,-1.692 1.181,-33.897 1.181,-71.567 0,-50.679 -0.607,-69.1 -2.334,-70.826 -1.723,-1.723 -19.499,-2.334 -67.908,-2.334 -36.066,0 -66.959,0.531 -68.651,1.181 -2.729,1.048 -3.076,9.384 -3.076,73.901 v 72.722 h 69.805 c 61.856,-10e-4 69.937,-0.351 70.983,-3.077 z M 215.90194,678.11004 v -72.93 l -67.837,-0.512 c -48.446995,-0.365 -68.597995,0.119 -70.497995,1.696 -3.667,3.044 -3.956,139.685 -0.303,143.337 1.778,1.778 19.125,2.232 70.498995,1.848 l 68.14,-0.511 v -72.928 z m 296.366,71.242 c 1.579,-1.902 2.062,-22.811 1.696,-73.415 l -0.511,-70.756 -70.984,-0.514 c -65.007,-0.471 -71.188,-0.234 -73.415,2.803 -3.138,4.279 -3.525,134.975 -0.418,140.78 1.933,3.611 4.793,3.762 71.719,3.762 56.589,0 70.121,-0.501 71.913,-2.66 z m 296.793,-71.242 v -72.93 h -71.957 -71.957 l -0.511,70.977 c -0.281,39.036 -0.086,72.084 0.435,73.439 0.744,1.938 16.165,2.354 72.468,1.953 l 71.522,-0.511 v -72.928 z m 298.13396,71.568 c 3.346,-3.346 3.346,-139.79 0,-143.136 -1.73,-1.73 -20.78,-2.334 -73.675,-2.334 h -71.34096 l -1.173,4.376 c -2.098,7.827 -1.377,135.621 0.787,139.666 1.934,3.613 4.803,3.762 72.54096,3.762 52.262,0 71.132,-0.605 72.861,-2.334 z m -745.57296,-148.526 c 2.663,-2.664 3.052,-11.843 3.025,-71.471 -0.016,-37.62804 -0.73,-69.52004 -1.588,-70.87004 -1.219,-1.92 -17.021,-2.345 -72.413,-1.945 l -70.855,0.511 -0.514,70.98404 c -0.471,65.008 -0.235,71.189 2.803,73.416 2.5,1.833 19.698,2.431 69.901,2.431 57.938,0 66.981,-0.396 69.641,-3.056 z m 298.201,1.438 c 1.92,-1.219 2.344,-17.216 1.944,-73.386 l -0.511,-71.82704 h -72.93 -72.929 l -0.511,71.82704 c -0.399,56.17 0.024,72.167 1.945,73.386 3.208,2.036 139.785,2.036 142.992,0 z m 298.847,-1.438 c 2.663,-2.664 3.052,-11.843 3.026,-71.471 -0.017,-37.62804 -0.731,-69.52004 -1.589,-70.87004 -1.219,-1.92 -17.409,-2.344 -74.357,-1.944 l -72.8,0.51 -0.514,70.98404 c -0.471,65.008 -0.234,71.189 2.803,73.416 2.504,1.836 20.087,2.431 71.846,2.431 59.706,0 68.922,-0.393 71.585,-3.056 z m 292.43896,0.722 c 2.706,-2.706 3.387,-138.85404 0.715,-143.06304 -1.218,-1.919 -16.633,-2.345 -70.469,-1.945 l -68.909,0.512 -0.511,71.82704 c -0.399,56.17 0.024,72.167 1.945,73.386 4.206,2.669 134.524,1.989 137.229,-0.717 z M 216.41194,381.045 l -0.51,-71.471 -68.909,-0.512 c -53.834995,-0.399 -69.249995,0.025 -70.468995,1.944 -1.799,2.835 -2.214,133.805 -0.438,138.433 1.046,2.726 9.128,3.076 71.007995,3.076 h 69.828 l -0.51,-71.47 z m 297.041,-0.486 v -70.984 l -71.827,-0.511 c -56.17,-0.399 -72.166,0.024 -73.386,1.944 -1.805,2.843 -2.21,133.813 -0.429,138.455 1.064,2.771 8.82,3.046 73.416,2.59 l 72.226,-0.51 v -70.984 z m 296.117,0.486 -0.51,-71.471 h -71.957 -71.957 l -0.512,69.029 c -0.281,37.966 -0.09,70.128 0.425,71.471 0.729,1.897 16.979,2.441 72.979,2.441 h 72.042 l -0.51,-71.47 z m 298.98696,-0.486 v -70.984 l -72.8,-0.511 c -56.94796,-0.399 -73.13896,0.024 -74.35696,1.945 -1.805,2.842 -2.21,133.812 -0.429,138.453 1.063,2.773 8.904,3.046 74.38796,2.59 l 73.198,-0.509 V 380.559 z M 362.34394,302.378 c 1.726,-1.726 2.334,-19.936 2.334,-69.873 0,-58.807 -0.396,-67.935 -3.056,-70.596 -2.659,-2.658 -11.66,-3.056 -69.168,-3.056 -41.854,0 -67.492,0.738 -69.873,2.013 -3.612,1.933 -3.762,4.793 -3.762,71.633 0,38.291 0.583,70.203 1.296,70.916 0.713,0.713 32.481,1.297 70.595,1.297 51.308,0 69.906,-0.606 71.634,-2.334 z m 299.424,-69.493 c 0.399,-55.392 -0.024,-71.194 -1.944,-72.413 -2.834,-1.799 -137.693,-2.214 -142.321,-0.438 -2.727,1.046 -3.076,9.183 -3.076,71.632 0,38.749 0.594,71.047 1.32,71.772 0.726,0.727 33.763,1.091 73.415,0.811 l 72.096,-0.51 0.51,-70.854 z m 298.777,68.751 c 0.649,-1.692 1.181,-33.135 1.181,-69.873 0,-58.132 -0.396,-67.193 -3.056,-69.854 -2.662,-2.662 -11.836,-3.056 -71.112,-3.056 -43.194,0 -69.431,0.735 -71.818,2.013 -3.611,1.933 -3.762,4.793 -3.762,71.633 0,38.291 0.584,70.203 1.297,70.916 0.713,0.713 33.875,1.297 73.693,1.297 64.222,0 72.53,-0.348 73.577,-3.076 z m 291.71796,0 c 0.649,-1.692 1.181,-33.46 1.181,-70.596 0,-49.922 -0.608,-68.128 -2.334,-69.854 -1.723,-1.723 -19.499,-2.333 -67.908,-2.333 -36.066,0 -66.959,0.531 -68.651,1.181 -2.727,1.046 -3.076,9.183 -3.076,71.632 0,38.749 0.584,71.036 1.297,71.749 0.713,0.713 32.125,1.297 69.804,1.297 60.675,0 68.641,-0.352 69.687,-3.076 z M 216.41294,85.413 l 0.51,-70.522 -70.522,0.511 -70.522995,0.51 -0.512,67.837 c -0.368,48.806 0.114,68.591 1.717,70.523 1.833,2.209 14.345,2.595 70.523995,2.175 l 68.295,-0.511 0.511,-70.523 z m 295.856,68.834 c 1.577,-1.9 2.063,-22.051 1.696,-70.498 l -0.512,-67.837 h -72.929 -72.93 l -0.512,66.689 c -0.336,43.764 0.189,67.998 1.527,70.498 1.966,3.675 4.517,3.81 71.744,3.81 56.607,-0.001 70.123,-0.501 71.916,-2.662 z m 297.302,-68.833 0.51,-70.522 -72.467,0.51 -72.468,0.51 -0.512,68.056 c -0.282,37.432 -0.086,69.166 0.435,70.522 0.745,1.942 16.127,2.357 72.469,1.956 l 71.522,-0.51 0.511,-70.522 z m 297.80096,68.833 c 1.577,-1.9 2.062,-22.051 1.696,-70.498 l -0.512,-67.837 h -73.901 -73.90196 l -0.512,66.689 c -0.336,43.764 0.189,67.998 1.527,70.498 1.967,3.676 4.523,3.81 72.71696,3.81 57.428,-0.001 71.092,-0.5 72.887,-2.662 z"
     inkscape:connector-curvature="0" /><text
     sodipodi:linespacing="125%"
     id="text3701"
     y="1147.317"
     x="0.2537567"
     style="font-size:72px;font-style:normal;font-weight:normal;line-height:125%;letter-spacing:0px;word-spacing:0px;fill:#000000;fill-opacity:1;stroke:none;font-family:Sans"
     xml:space="preserve"><tspan
       y="1147.317"
       x="0.2537567"
       id="tspan3703"
       sodipodi:role="line">0</tspan></text>
<text
     sodipodi:linespacing="125%"
     id="text3705"
     y="998.77551"
     x="-2.9103057"
     style="font-size:72px;font-style:normal;font-weight:normal;line-height:125%;letter-spacing:0px;word-spacing:0px;fill:#000000;fill-opacity:1;stroke:none;font-family:Sans"
     xml:space="preserve"><tspan
       y="998.77551"
       x="-2.9103057"
       id="tspan3707"
       sodipodi:role="line">1</tspan></text>
<text
     sodipodi:linespacing="125%"
     id="text3709"
     y="850.67395"
     x="-0.27358705"
     style="font-size:72px;font-style:normal;font-weight:normal;line-height:125%;letter-spacing:0px;word-spacing:0px;fill:#000000;fill-opacity:1;stroke:none;font-family:Sans"
     xml:space="preserve"><tspan
       y="850.67395"
       x="-0.27358705"
       id="tspan3711"
       sodipodi:role="line">2</tspan></text>
<text
     sodipodi:linespacing="125%"
     id="text3713"
     y="701.58752"
     x="-0.48452455"
     style="font-size:72px;font-style:normal;font-weight:normal;line-height:125%;letter-spacing:0px;word-spacing:0px;fill:#000000;fill-opacity:1;stroke:none;font-family:Sans"
     xml:space="preserve"><tspan
       y="701.58752"
       x="-0.48452455"
       id="tspan3715"
       sodipodi:role="line">3</tspan></text>
<text
     sodipodi:linespacing="125%"
     id="text3717"
     y="553.04651"
     x="1.4842255"
     style="font-size:72px;font-style:normal;font-weight:normal;line-height:125%;letter-spacing:0px;word-spacing:0px;fill:#000000;fill-opacity:1;stroke:none;font-family:Sans"
     xml:space="preserve"><tspan
       y="553.04651"
       x="1.4842255"
       id="tspan3719"
       sodipodi:role="line">4</tspan></text>
<text
     sodipodi:linespacing="125%"
     id="text3721"
     y="403.96011"
     x="-0.55483705"
     style="font-size:72px;font-style:normal;font-weight:normal;line-height:125%;letter-spacing:0px;word-spacing:0px;fill:#000000;fill-opacity:1;stroke:none;font-family:Sans"
     xml:space="preserve"><tspan
       y="403.96011"
       x="-0.55483705"
       id="tspan3723"
       sodipodi:role="line">5</tspan></text>
<text
     sodipodi:linespacing="125%"
     id="text3725"
     y="255.85855"
     x="-0.027493289"
     style="font-size:72px;font-style:normal;font-weight:normal;line-height:125%;letter-spacing:0px;word-spacing:0px;fill:#000000;fill-opacity:1;stroke:none;font-family:Sans"
     xml:space="preserve"><tspan
       y="255.85855"
       x="-0.027493289"
       id="tspan3727"
       sodipodi:role="line">6</tspan></text>
<text
     sodipodi:linespacing="125%"
     id="text3729"
     y="107.31704"
     x="-0.90639955"
     style="font-size:72px;font-style:normal;font-weight:normal;line-height:125%;letter-spacing:0px;word-spacing:0px;fill:#000000;fill-opacity:1;stroke:none;font-family:Sans"
     xml:space="preserve"><tspan
       y="107.31704"
       x="-0.90639955"
       id="tspan3731"
       sodipodi:role="line">7</tspan></text>
</svg>